# xmcd
#
# Track frame offsets: 
#        182
#        2522
#        22422
#        23337
#        46257
#        46862
#        67425
#        67560
#        99240
#        99295
#        120030
#        138292
#        139430
#        163847
#        164472
#        182517
#        183387
#        202905
#        203800
#        220832
#        221690
#        247702
#        248410
#        273342
#        274795
#        306920
#
# Disc length: 4188 seconds
#
# Revision: 0
# Processed by: cddbd v1.5.1PL0 Copyright (c) Steve Scherf et al.
# Submitted via: ExactAudioCopy v0.95a5
#
DISCID=5f105a1a
DTITLE=Janet Jackson - janet.
DYEAR=1993
DGENRE=Pop
TTITLE0=Morning
TTITLE1=That's The Way Love Goes
TTITLE2=You Know...
TTITLE3=You Want This
TTITLE4=Be A Good Boy...
TTITLE5=If
TTITLE6=Back
TTITLE7=This Time
TTITLE8=Go On Miss Janet
TTITLE9=Throb
TTITLE10=What Will I Do
TTITLE11=The Lounge
TTITLE12=Funky Big Band
TTITLE13=Racism
TTITLE14=New Agenda
TTITLE15=Love Pt. 2
TTITLE16=Because Of Love
TTITLE17=Wind
TTITLE18=Again
TTITLE19=Another Lover
TTITLE20=Where Are You Now
TTITLE21=Hold On Baby
TTITLE22=The Body That Loves You
TTITLE23=Rain
TTITLE24=Any Time Any Place
TTITLE25=Are You Still Up
EXTD=
EXTT0=
EXTT1=
EXTT2=
EXTT3=
EXTT4=
EXTT5=
EXTT6=
EXTT7=
EXTT8=
EXTT9=
EXTT10=
EXTT11=
EXTT12=
EXTT13=
EXTT14=
EXTT15=
EXTT16=
EXTT17=
EXTT18=
EXTT19=
EXTT20=
EXTT21=
EXTT22=
EXTT23=
EXTT24=
EXTT25=
PLAYORDER=
